:SAMPLES-PER-SECOND 30
:FULLY-SPECIFIED
:DEGREES
151
root  15.5786 38.746 -26.3319 -12.9555 71.2673 -5.1629
RightUpLeg  19.0548 -8.7913 4.30511
RightLeg  13.556 -11.1813 1.76599
RightFoot  -20.1984 -0.554632 -5.37024
RightToes  0.00048216 0.542163 -0.142577
Spine  14.2281 0.21786 9.20143
Spine1  12.2798 3.23603 -6.00788
HEad  9.21958 4.19264 -3.29735
LeftShoulder1  7.96304 -12.4867 -43.3151
LeftArm  -15.1125 17.0543 -25.3598
LeftForeArm  38.224 -75.8353 -47.5026
LeftHand  -0.25398 0.0180481 5.50724
RightShoulder  4.69083 8.62524 32.733
RightArm  -6.88764 -23.6178 27.7218
RightForeArm  14.7044 77.4096 78.8256
RightHand  0.719976 -10.0946 -18.5816
LeftUpLeg  -14.6907 6.57555 5.09336
LeftLeg  -5.56613 22.2938 -9.19408
LeftFoot  -0.413392 0.697608 -7.21473
LeftToes  1.06243e-005 4.65856e-005 -8.18503e-006
152
root  17.3071 38.3271 -25.783 -11.8665 70.934 -4.72597
RightUpLeg  20.5068 -12.7814 1.97693
RightLeg  16.4329 -6.13934 1.0811
RightFoot  -22.2505 -0.493547 -3.69602
RightToes  0.00048216 0.542163 -0.142577
Spine  12.9509 0.587807 8.37784
Spine1  12.8816 3.66901 -6.33749
HEad  10.1566 4.3393 -2.63111
LeftShoulder1  7.95201 -12.5452 -43.0842
LeftArm  -14.6975 16.4565 -25.3237
LeftForeArm  36.8555 -75.4886 -45.9197
LeftHand  -0.25398 0.0180481 5.50724
RightShoulder  4.80968 8.76079 33.2728
RightArm  -6.90497 -23.6607 27.248
RightForeArm  12.6346 77.3335 77.3513
RightHand  0.729678 -10.1272 -18.6868
LeftUpLeg  -15.7376 6.55819 3.98006
LeftLeg  -3.49086 25.5884 -9.10202
LeftFoot  1.1323 0.495309 -4.70006
LeftToes  1.06243e-005 4.65856e-005 -8.18503e-006
153
root  19.0159 37.9114 -25.2145 -8.62999 70.5881 -1.99675
RightUpLeg  20.8095 -17.5127 -1.9038
RightLeg  21.8782 1.11475 0.518147
RightFoot  -23.3237 -0.0468481 1.11222
RightToes  0.00048216 0.542163 -0.142577
Spine  12.2064 1.26141 5.97472
Spine1  13.2051 4.0013 -5.87409
HEad  10.7232 4.54817 -2.01936
LeftShoulder1  8.02976 -12.6771 -43.1553
LeftArm  -14.2312 15.9401 -25.0885
LeftForeArm  35.2916 -75.0708 -44.182
LeftHand  -0.25398 0.0180481 5.50724
RightShoulder  4.95631 8.97309 33.7783
RightArm  -6.95027 -23.6978 26.8162
RightForeArm  9.02937 77.1499 74.1827
RightHand  0.696592 -9.93592 -18.6221
LeftUpLeg  -18.4636 9.22096 1.23499
LeftLeg  4.01172 21.1354 -6.01966
LeftFoot  5.43533 -0.211331 1.0705
LeftToes  1.06243e-005 4.65856e-005 -8.18503e-006
154
root  20.6903 37.607 -24.6527 -2.18489 71.1406 4.11685
RightUpLeg  17.5788 -16.7311 -4.78642
RightLeg  32.1703 2.11354 1.13386
RightFoot  -19.1822 0.343932 7.44086
RightToes  0.00048216 0.542163 -0.142577
Spine  11.7832 1.57102 1.73477
Spine1  13.4745 3.44401 -4.37038
HEad  10.6196 5.16033 -1.78933
LeftShoulder1  8.14594 -12.7916 -43.491
LeftArm  -14.0098 15.1831 -24.6432
LeftForeArm  32.6495 -74.3664 -41.6609
LeftHand  -0.25398 0.0180481 5.50724
RightShoulder  5.06894 9.17876 34.0202
RightArm  -7.25894 -22.8602 27.194
RightForeArm  2.81764 76.6241 67.32
RightHand  0.60802 -9.50507 -18.0874
LeftUpLeg  -22.0633 17.4369 -5.67326
LeftLeg  11.7622 8.69218 -1.68039
LeftFoot  9.3339 -1.40642 7.4751
LeftToes  1.06243e-005 4.65856e-005 -8.18503e-006
155
root  22.2503 37.4611 -24.1695 7.08737 72.7521 13.0339
RightUpLeg  10.4998 -17.028 -8.42044
RightLeg  46.6821 1.63669 1.44958
RightFoot  -7.16594 -0.371281 10.0839
RightToes  0.00048216 0.542163 -0.142577
Spine  11.7635 1.12956 -2.82563
Spine1  14.2079 2.1066 -2.93581
HEad  9.69855 5.85839 -2.24038
LeftShoulder1  8.32263 -12.9897 -43.9233
LeftArm  -13.9098 13.3935 -24.0026
LeftForeArm  28.1004 -72.9845 -37.571
LeftHand  -0.25398 0.0180481 5.50724
RightShoulder  5.1261 9.29415 34.1052
RightArm  -8.02339 -20.9242 28.1714
RightForeArm  -3.96046 75.705 59.2931
RightHand  0.505894 -8.94821 -17.5967
LeftUpLeg  -24.7989 19.7232 -11.888
LeftLeg  17.5353 3.45314 1.81067
LeftFoot  9.08207 -2.00446 10.8148
LeftToes  1.06243e-005 4.65856e-005 -8.18503e-006
